<svg xmlns="http://www.w3.org/2000/svg" viewBox="0 0 24 24" width="24" height="24">
  <path d="M12 1.75a1.75 1.75 0 0 1 1.75 1.75v1.1a7.97 7.97 0 0 1 2.45.9l.8-.8a1.75 1.75 0 0 1 2.475 0l1.25 1.25a1.75 1.75 0 0 1 0 2.475l-.8.8a7.97 7.97 0 0 1 .9 2.45h1.1A1.75 1.75 0 0 1 22.25 12a1.75 1.75 0 0 1-1.75 1.75h-1.1a7.97 7.97 0 0 1-.9 2.45l.8.8a1.75 1.75 0 0 1 0 2.475l-1.25 1.25a1.75 1.75 0 0 1-2.475 0l-.8-.8a7.97 7.97 0 0 1-2.45.9v1.1A1.75 1.75 0 0 1 12 22.25a1.75 1.75 0 0 1-1.75-1.75v-1.1a7.97 7.97 0 0 1-2.45-.9l-.8.8a1.75 1.75 0 0 1-2.475 0l-1.25-1.25a1.75 1.75 0 0 1 0-2.475l.8-.8a7.97 7.97 0 0 1-.9-2.45h-1.1A1.75 1.75 0 0 1 1.75 12a1.75 1.75 0 0 1 1.75-1.75h1.1a7.97 7.97 0 0 1 .9-2.45l-.8-.8a1.75 1.75 0 0 1 0-2.475l1.25-1.25a1.75 1.75 0 0 1 2.475 0l.8.8a7.97 7.97 0 0 1 2.45-.9v-1.1A1.75 1.75 0 0 1 12 1.75zm0 4.5a5.75 5.75 0 1 0 0 11.5 5.75 5.75 0 0 0 0-11.5z"/>
</svg>